<svg width="9" height="8" viewBox="0 0 9 8" fill="none" xmlns="http://www.w3.org/2000/svg">
<path d="M4.29289 4.03127C4.36623 4.03121 4.43655 4.002 4.48838 3.95008L7.09248 1.34465V2.69165C7.09248 2.76506 7.12162 2.83546 7.1735 2.88736C7.22538 2.93927 7.29575 2.96843 7.36912 2.96843C7.44248 2.96843 7.51285 2.93927 7.56473 2.88736C7.61661 2.83546 7.64575 2.76506 7.64575 2.69165V0.676683C7.64575 0.603277 7.61661 0.532876 7.56473 0.48097C7.51285 0.429063 7.44248 0.399902 7.36912 0.399902H5.35518C5.28181 0.399902 5.21145 0.429063 5.15957 0.48097C5.10769 0.532876 5.07854 0.603277 5.07854 0.676683C5.07854 0.75009 5.10769 0.820491 5.15957 0.872397C5.21145 0.924304 5.28181 0.953464 5.35518 0.953464H6.70149L4.07895 3.5589C4.04031 3.5976 4.014 3.6469 4.00335 3.70056C3.9927 3.75422 3.99817 3.80983 4.01909 3.86038C4.04001 3.91092 4.07543 3.95413 4.12088 3.98455C4.16633 4.01496 4.21976 4.03122 4.27444 4.03127H4.29289Z" fill="white" stroke="#808F9F" stroke-width="0.63"/>
<path d="M7.12155 6.86182V5.13073C7.12155 4.82312 7.37091 4.57376 7.67852 4.57376V6.86182C7.67852 7.05757 7.60079 7.24531 7.46245 7.38372C7.3241 7.52214 7.13646 7.5999 6.94081 7.5999H1.21622C1.02057 7.5999 0.832931 7.52214 0.694584 7.38372C0.556238 7.24531 0.478516 7.05757 0.478516 6.86182V1.13799C0.478516 0.942234 0.556238 0.754499 0.694584 0.616082C0.832931 0.477664 1.02057 0.399902 1.21622 0.399902H3.38138C3.38138 0.705626 3.13355 0.953465 2.82782 0.953465H1.21622C1.16829 0.953465 1.12231 0.972516 1.08842 1.00643C1.05452 1.04034 1.03548 1.08634 1.03548 1.13429V6.86182C1.03548 6.90978 1.05452 6.95577 1.08842 6.98969C1.12231 7.0236 1.16829 7.04265 1.21622 7.04265H6.94081C6.98874 7.04265 7.03472 7.0236 7.06861 6.98969C7.10251 6.95577 7.12155 6.90978 7.12155 6.86182Z" fill="white" stroke="#808F9F" stroke-width="0.63"/>
</svg>
